<svg xmlns="http://www.w3.org/2000/svg" width="1240" height="760" viewBox="0 0 1240 760" role="img" aria-labelledby="title desc">
  <title id="title">Local GenAI Lab architecture overview</title>
  <desc id="desc">Diagram showing the main runtime interactions between the React UI, Spring Boot backend, provider registry, Ollama, Amazon Bedrock, MCP server, shell scripts, AWS CLI, session storage, and report artifacts.</desc>
  <defs>
    <style>
      .bg { fill: #f6f4ef; }
      .panel { fill: #fffdf7; stroke: #d8d1c2; stroke-width: 2; rx: 18; ry: 18; }
      .box { fill: #fffaf0; stroke: #4f5b66; stroke-width: 2; rx: 14; ry: 14; }
      .box-accent { fill: #eef6f3; stroke: #2d6a4f; stroke-width: 2; rx: 14; ry: 14; }
      .box-provider { fill: #eef2fb; stroke: #355070; stroke-width: 2; rx: 14; ry: 14; }
      .box-storage { fill: #f8efe9; stroke: #8d5a3b; stroke-width: 2; rx: 14; ry: 14; }
      .heading { font: 700 28px "Helvetica Neue", Arial, sans-serif; fill: #24313d; }
      .subheading { font: 700 20px "Helvetica Neue", Arial, sans-serif; fill: #24313d; }
      .label { font: 600 18px "Helvetica Neue", Arial, sans-serif; fill: #24313d; }
      .body { font: 15px "Helvetica Neue", Arial, sans-serif; fill: #3a4752; }
      .arrow { stroke: #4f5b66; stroke-width: 3; fill: none; marker-end: url(#arrowhead); }
      .arrow-accent { stroke: #2d6a4f; stroke-width: 3; fill: none; marker-end: url(#arrowheadGreen); }
      .dashed { stroke-dasharray: 8 7; }
      .small { font: 13px "Helvetica Neue", Arial, sans-serif; fill: #5f6b76; }
    </style>
    <marker id="arrowhead" markerWidth="10" markerHeight="10" refX="9" refY="5" orient="auto">
      <path d="M 0 0 L 10 5 L 0 10 z" fill="#4f5b66" />
    </marker>
    <marker id="arrowheadGreen" markerWidth="10" markerHeight="10" refX="9" refY="5" orient="auto">
      <path d="M 0 0 L 10 5 L 0 10 z" fill="#2d6a4f" />
    </marker>
  </defs>

  <rect class="bg" x="0" y="0" width="1240" height="760" />

  <text class="heading" x="60" y="58">Local GenAI Lab Architecture Overview</text>
  <text class="body" x="60" y="88">Main runtime interactions for chat, provider switching, tool execution, session persistence, and artifact access.</text>

  <rect class="panel" x="40" y="120" width="1160" height="590" />

  <rect class="box" x="80" y="250" width="220" height="120" />
  <text class="subheading" x="145" y="295">React UI</text>
  <text class="body" x="108" y="325">Chat, sessions, providers,</text>
  <text class="body" x="119" y="347">models, artifacts, exports</text>

  <rect class="box-accent" x="380" y="180" width="360" height="260" />
  <text class="subheading" x="466" y="220">Spring Boot Backend</text>

  <rect class="box" x="415" y="245" width="290" height="72" />
  <text class="label" x="458" y="288">Chat Orchestration</text>
  <text class="small" x="448" y="307">routing, prompt building, streaming, persistence</text>

  <rect class="box" x="415" y="340" width="290" height="72" />
  <text class="label" x="470" y="383">Provider Registry</text>
  <text class="small" x="454" y="402">runtime provider and model resolution</text>

  <rect class="box-provider" x="810" y="160" width="180" height="95" />
  <text class="label" x="870" y="202">Ollama</text>
  <text class="small" x="847" y="225">local models and chat API</text>

  <rect class="box-provider" x="810" y="285" width="180" height="95" />
  <text class="label" x="834" y="327">Amazon Bedrock</text>
  <text class="small" x="845" y="350">runtime + inference profiles</text>

  <rect class="box-provider" x="810" y="410" width="180" height="95" />
  <text class="label" x="850" y="452">MCP Server</text>
  <text class="small" x="835" y="475">typed local tool contracts</text>

  <rect class="box" x="1040" y="410" width="120" height="95" />
  <text class="label" x="1100" y="447" text-anchor="middle">Shell</text>
  <text class="label" x="1100" y="471" text-anchor="middle">Scripts</text>

  <rect class="box" x="1040" y="545" width="120" height="95" />
  <text class="label" x="1057" y="587">AWS CLI</text>
  <text class="small" x="1051" y="610">live account</text>

  <rect class="box-storage" x="380" y="500" width="180" height="110" />
  <text class="label" x="416" y="542">Session Storage</text>
  <text class="small" x="429" y="565">JSON sessions with</text>
  <text class="small" x="415" y="585">provider/tool metadata</text>

  <rect class="box-storage" x="610" y="500" width="180" height="110" />
  <text class="label" x="642" y="542">Report Artifacts</text>
  <text class="small" x="644" y="565">audit reports, previews,</text>
  <text class="small" x="648" y="585">summary and stderr files</text>

  <path class="arrow" d="M 300 310 L 380 310" />
  <text class="small" x="314" y="292">HTTP + SSE</text>

  <path class="arrow" d="M 560 317 L 560 340" />

  <path class="arrow" d="M 740 280 C 770 260, 780 235, 810 215" />
  <text class="small" x="722" y="228">plain chat</text>

  <path class="arrow" d="M 740 315 C 777 320, 785 320, 810 332" />
  <text class="small" x="747" y="346">provider switch</text>

  <path class="arrow" d="M 740 388 C 772 410, 784 432, 810 452" />
  <text class="small" x="724" y="435">tool-assisted chat</text>

  <path class="arrow" d="M 990 458 L 1040 458" />
  <path class="arrow" d="M 1100 505 L 1100 545" />

  <path class="arrow-accent" d="M 1040 610 C 970 645, 885 660, 790 640" />
  <text class="small" x="866" y="682">live AWS inspection</text>

  <path class="arrow" d="M 520 440 L 470 500" />
  <text class="small" x="403" y="470">persist turns</text>

  <path class="arrow" d="M 640 440 L 700 500" />
  <text class="small" x="649" y="470">artifact access</text>

  <path class="arrow dashed" d="M 1040 500 C 965 535, 880 555, 790 555" />
  <text class="small" x="838" y="537">tool-generated reports</text>

  <path class="arrow dashed" d="M 610 610 L 610 660 L 280 660 L 280 365" />
  <text class="small" x="334" y="680">load sessions / preview artifacts</text>
</svg>
